<svg width="4421" height="994" viewBox="0 0 4421 994" fill="none" xmlns="http://www.w3.org/2000/svg">
<path d="M482.44 157.55C477.94 164.75 473.14 170.15 468.04 173.75C463.24 177.35 456.94 179.15 449.14 179.15C442.24 179.15 434.74 177.05 426.64 172.85C418.84 168.35 409.84 163.4 399.64 158C389.74 152.6 378.34 147.8 365.44 143.6C352.54 139.1 337.84 136.85 321.34 136.85C292.84 136.85 271.54 143 257.44 155.3C243.64 167.3 236.74 183.65 236.74 204.35C236.74 217.55 240.94 228.5 249.34 237.2C257.74 245.9 268.69 253.4 282.19 259.7C295.99 266 311.59 271.85 328.99 277.25C346.69 282.35 364.69 288.2 382.99 294.8C401.29 301.1 419.14 308.6 436.54 317.3C454.24 326 469.84 337.1 483.34 350.6C497.14 364.1 508.24 380.6 516.64 400.1C525.04 419.3 529.24 442.55 529.24 469.85C529.24 500.15 523.99 528.5 513.49 554.9C502.99 581.3 487.69 604.4 467.59 624.2C447.79 643.7 423.19 659.15 393.79 670.55C364.69 681.65 331.54 687.2 294.34 687.2C273.94 687.2 253.09 685.1 231.79 680.9C210.79 676.7 190.39 670.85 170.59 663.35C150.79 655.55 132.19 646.4 114.79 635.9C97.3902 625.4 82.2402 613.7 69.3402 600.8L114.34 529.7C117.94 524.6 122.59 520.4 128.29 517.1C134.29 513.5 140.74 511.7 147.64 511.7C156.64 511.7 165.64 514.55 174.64 520.25C183.94 525.95 194.29 532.25 205.69 539.15C217.39 546.05 230.74 552.35 245.74 558.05C260.74 563.75 278.44 566.6 298.84 566.6C326.44 566.6 347.89 560.6 363.19 548.6C378.49 536.3 386.14 516.95 386.14 490.55C386.14 475.25 381.94 462.8 373.54 453.2C365.14 443.6 354.04 435.65 340.24 429.35C326.74 423.05 311.29 417.5 293.89 412.7C276.49 407.9 258.64 402.65 240.34 396.95C222.04 390.95 204.19 383.75 186.79 375.35C169.39 366.65 153.79 355.4 139.99 341.6C126.49 327.5 115.54 310.1 107.14 289.4C98.7402 268.4 94.5402 242.6 94.5402 212C94.5402 187.4 99.4902 163.4 109.39 140C119.29 116.6 133.84 95.7499 153.04 77.45C172.24 59.15 195.79 44.6 223.69 33.8C251.59 22.7 283.54 17.15 319.54 17.15C339.64 17.15 359.14 18.8 378.04 22.1C397.24 25.1 415.39 29.75 432.49 36.0499C449.59 42.05 465.49 49.4 480.19 58.1C495.19 66.5 508.54 76.1 520.24 86.9L482.44 157.55ZM1013.8 213.35V680H927.399C909.999 680 898.599 672.2 893.199 656.6L885.099 629.6C876.099 638.3 866.799 646.25 857.199 653.45C847.599 660.35 837.249 666.35 826.149 671.45C815.349 676.25 803.499 680 790.599 682.7C777.999 685.7 764.199 687.2 749.199 687.2C723.699 687.2 701.049 682.85 681.249 674.15C661.749 665.15 645.249 652.7 631.749 636.8C618.249 620.9 608.049 602.15 601.149 580.55C594.249 558.95 590.799 535.25 590.799 509.45V213.35H730.299V509.45C730.299 532.55 735.549 550.4 746.049 563C756.549 575.6 771.999 581.9 792.399 581.9C807.699 581.9 821.949 578.75 835.149 572.45C848.649 565.85 861.699 557 874.299 545.9V213.35H1013.8ZM1248.08 553.1C1258.58 564.5 1269.98 572.6 1282.28 577.4C1294.58 582.2 1307.48 584.6 1320.98 584.6C1333.88 584.6 1345.73 582.05 1356.53 576.95C1367.33 571.85 1376.63 563.75 1384.43 552.65C1392.53 541.25 1398.83 526.55 1403.33 508.55C1407.83 490.55 1410.08 468.65 1410.08 442.85C1410.08 418.25 1408.28 397.55 1404.68 380.75C1401.08 363.95 1395.98 350.45 1389.38 340.25C1383.08 329.75 1375.43 322.25 1366.43 317.75C1357.43 313.25 1347.38 311 1336.28 311C1315.88 311 1299.08 314.75 1285.88 322.25C1272.68 329.75 1260.08 340.7 1248.08 355.1V553.1ZM1239.53 270.95C1257.83 251.45 1278.53 235.55 1301.63 223.25C1325.03 210.65 1352.78 204.35 1384.88 204.35C1409.18 204.35 1431.68 209.75 1452.38 220.55C1473.08 231.35 1490.93 246.95 1505.93 267.35C1520.93 287.75 1532.63 312.8 1541.03 342.5C1549.73 371.9 1554.08 405.35 1554.08 442.85C1554.08 477.95 1549.13 510.35 1539.23 540.05C1529.63 569.75 1515.98 595.55 1498.28 617.45C1480.88 639.35 1459.88 656.45 1435.28 668.75C1410.98 681.05 1383.98 687.2 1354.28 687.2C1329.98 687.2 1309.58 683.75 1293.08 676.85C1276.58 669.95 1261.58 660.65 1248.08 648.95V828.05H1108.58V213.35H1194.98C1212.38 213.35 1223.78 221.15 1229.18 236.75L1239.53 270.95ZM1916.51 390.65C1916.51 379.55 1915.01 368.75 1912.01 358.25C1909.31 347.75 1904.66 338.45 1898.06 330.35C1891.76 321.95 1883.36 315.2 1872.86 310.1C1862.36 305 1849.61 302.45 1834.61 302.45C1808.21 302.45 1787.51 310.1 1772.51 325.4C1757.51 340.4 1747.61 362.15 1742.81 390.65H1916.51ZM1741.01 471.65C1745.51 510.65 1757.36 539 1776.56 556.7C1795.76 574.1 1820.51 582.8 1850.81 582.8C1867.01 582.8 1880.96 580.85 1892.66 576.95C1904.36 573.05 1914.71 568.7 1923.71 563.9C1933.01 559.1 1941.41 554.75 1948.91 550.85C1956.71 546.95 1964.81 545 1973.21 545C1984.31 545 1992.71 549.05 1998.41 557.15L2038.91 607.1C2024.51 623.6 2008.91 637.1 1992.11 647.6C1975.61 657.8 1958.51 665.9 1940.81 671.9C1923.41 677.6 1905.86 681.5 1888.16 683.6C1870.76 686 1854.11 687.2 1838.21 687.2C1805.51 687.2 1774.76 681.95 1745.96 671.45C1717.46 660.65 1692.41 644.75 1670.81 623.75C1649.51 602.75 1632.56 576.65 1619.96 545.45C1607.66 514.25 1601.51 477.95 1601.51 436.55C1601.51 405.35 1606.76 375.8 1617.26 347.9C1628.06 320 1643.36 295.55 1663.16 274.55C1683.26 253.55 1707.41 236.9 1735.61 224.6C1764.11 212.3 1796.21 206.15 1831.91 206.15C1862.81 206.15 1891.01 210.95 1916.51 220.55C1942.31 230.15 1964.36 244.1 1982.66 262.4C2001.26 280.7 2015.66 303.2 2025.86 329.9C2036.36 356.3 2041.61 386.3 2041.61 419.9C2041.61 430.4 2041.16 438.95 2040.26 445.55C2039.36 452.15 2037.71 457.4 2035.31 461.3C2032.91 465.2 2029.61 467.9 2025.41 469.4C2021.51 470.9 2016.41 471.65 2010.11 471.65H1741.01ZM2241.91 285.35C2256.31 260.15 2272.81 240.35 2291.41 225.95C2310.31 211.55 2331.91 204.35 2356.21 204.35C2377.21 204.35 2394.31 209.3 2407.51 219.2L2398.51 321.8C2397.01 328.4 2394.46 332.9 2390.86 335.3C2387.56 337.7 2382.91 338.9 2376.91 338.9C2374.51 338.9 2371.36 338.75 2367.46 338.45C2363.56 338.15 2359.51 337.85 2355.31 337.55C2351.11 336.95 2346.76 336.5 2342.26 336.2C2338.06 335.6 2334.16 335.3 2330.56 335.3C2310.16 335.3 2293.81 340.7 2281.51 351.5C2269.51 362.3 2259.31 377.3 2250.91 396.5V680H2111.41V213.35H2194.21C2201.11 213.35 2206.81 213.95 2211.31 215.15C2216.11 216.35 2220.01 218.3 2223.01 221C2226.31 223.4 2228.71 226.7 2230.21 230.9C2232.01 235.1 2233.51 240.2 2234.71 246.2L2241.91 285.35ZM2751.61 315.5C2748.01 321.2 2744.11 325.25 2739.91 327.65C2736.01 330.05 2730.91 331.25 2724.61 331.25C2718.01 331.25 2711.41 329.9 2704.81 327.2C2698.21 324.2 2691.01 321.05 2683.21 317.75C2675.71 314.45 2667.16 311.45 2657.56 308.75C2647.96 305.75 2637.01 304.25 2624.71 304.25C2607.01 304.25 2593.36 307.7 2583.76 314.6C2574.46 321.2 2569.81 330.5 2569.81 342.5C2569.81 351.2 2572.81 358.4 2578.81 364.1C2585.11 369.8 2593.36 374.9 2603.56 379.4C2613.76 383.6 2625.31 387.65 2638.21 391.55C2651.11 395.45 2664.31 399.8 2677.81 404.6C2691.31 409.4 2704.51 415.1 2717.41 421.7C2730.31 428 2741.86 435.95 2752.06 445.55C2762.26 454.85 2770.36 466.25 2776.36 479.75C2782.66 493.25 2785.81 509.45 2785.81 528.35C2785.81 551.45 2781.61 572.75 2773.21 592.25C2764.81 611.75 2752.21 628.55 2735.41 642.65C2718.91 656.75 2698.36 667.7 2673.76 675.5C2649.46 683.3 2621.41 687.2 2589.61 687.2C2573.71 687.2 2557.81 685.7 2541.91 682.7C2526.01 679.7 2510.56 675.65 2495.56 670.55C2480.86 665.45 2467.21 659.45 2454.61 652.55C2442.01 645.35 2431.21 637.7 2422.21 629.6L2454.61 578.3C2458.21 572.3 2462.71 567.65 2468.11 564.35C2473.81 560.75 2481.01 558.95 2489.71 558.95C2497.81 558.95 2505.01 560.75 2511.31 564.35C2517.91 567.95 2524.96 571.85 2532.46 576.05C2539.96 580.25 2548.66 584.15 2558.56 587.75C2568.76 591.35 2581.51 593.15 2596.81 593.15C2607.61 593.15 2616.76 592.1 2624.26 590C2631.76 587.6 2637.76 584.45 2642.26 580.55C2646.76 576.65 2650.06 572.3 2652.16 567.5C2654.26 562.7 2655.31 557.75 2655.31 552.65C2655.31 543.35 2652.16 535.7 2645.86 529.7C2639.56 523.7 2631.31 518.6 2621.11 514.4C2610.91 509.9 2599.21 505.85 2586.01 502.25C2573.11 498.35 2559.91 494 2546.41 489.2C2532.91 484.4 2519.56 478.7 2506.36 472.1C2493.46 465.2 2481.91 456.65 2471.71 446.45C2461.51 435.95 2453.26 423.2 2446.96 408.2C2440.66 393.2 2437.51 375.05 2437.51 353.75C2437.51 333.95 2441.26 315.2 2448.76 297.5C2456.56 279.5 2468.11 263.75 2483.41 250.25C2498.71 236.75 2517.91 226.1 2541.01 218.3C2564.11 210.2 2591.11 206.15 2622.01 206.15C2638.81 206.15 2655.01 207.65 2670.61 210.65C2686.51 213.65 2701.36 217.85 2715.16 223.25C2728.96 228.65 2741.56 235.1 2752.96 242.6C2764.36 249.8 2774.41 257.75 2783.11 266.45L2751.61 315.5ZM3022.8 687.2C3000.6 687.2 2980.95 684.05 2963.85 677.75C2947.05 671.15 2932.8 662 2921.1 650.3C2909.7 638.3 2901 623.9 2895 607.1C2889 590.3 2886 571.55 2886 550.85V309.65H2846.4C2839.2 309.65 2833.05 307.4 2827.95 302.9C2822.85 298.1 2820.3 291.2 2820.3 282.2V227.75L2894.55 213.35L2922 99.5C2925.6 85.1 2935.8 77.9 2952.6 77.9H3025.5V214.25H3141.15V309.65H3025.5V541.4C3025.5 552.2 3028.05 561.2 3033.15 568.4C3038.55 575.3 3046.2 578.75 3056.1 578.75C3061.2 578.75 3065.4 578.3 3068.7 577.4C3072.3 576.2 3075.3 575 3077.7 573.8C3080.4 572.3 3082.8 571.1 3084.9 570.2C3087.3 569 3090 568.4 3093 568.4C3097.2 568.4 3100.5 569.45 3102.9 571.55C3105.6 573.35 3108.3 576.35 3111 580.55L3153.3 646.7C3135.3 660.2 3115.05 670.4 3092.55 677.3C3070.05 683.9 3046.8 687.2 3022.8 687.2ZM3442.01 490.1C3414.11 491.3 3391.16 493.7 3373.16 497.3C3355.16 500.9 3340.91 505.4 3330.41 510.8C3319.91 516.2 3312.56 522.35 3308.36 529.25C3304.46 536.15 3302.51 543.65 3302.51 551.75C3302.51 567.65 3306.86 578.9 3315.56 585.5C3324.26 591.8 3337.01 594.95 3353.81 594.95C3371.81 594.95 3387.56 591.8 3401.06 585.5C3414.56 579.2 3428.21 569 3442.01 554.9V490.1ZM3190.91 278.15C3219.11 253.25 3250.31 234.8 3284.51 222.8C3319.01 210.5 3355.91 204.35 3395.21 204.35C3423.41 204.35 3448.76 209 3471.26 218.3C3494.06 227.3 3513.26 240.05 3528.86 256.55C3544.76 272.75 3556.91 292.1 3565.31 314.6C3573.71 337.1 3577.91 361.7 3577.91 388.4V680H3514.01C3500.81 680 3490.76 678.2 3483.86 674.6C3477.26 671 3471.71 663.5 3467.21 652.1L3457.31 626.45C3445.61 636.35 3434.36 645.05 3423.56 652.55C3412.76 660.05 3401.51 666.5 3389.81 671.9C3378.41 677 3366.11 680.75 3352.91 683.15C3340.01 685.85 3325.61 687.2 3309.71 687.2C3288.41 687.2 3269.06 684.5 3251.66 679.1C3234.26 673.4 3219.41 665.15 3207.11 654.35C3195.11 643.55 3185.81 630.2 3179.21 614.3C3172.61 598.1 3169.31 579.5 3169.31 558.5C3169.31 541.7 3173.51 524.75 3181.91 507.65C3190.31 490.25 3204.86 474.5 3225.56 460.4C3246.26 446 3274.16 434 3309.26 424.4C3344.36 414.8 3388.61 409.4 3442.01 408.2V388.4C3442.01 361.1 3436.31 341.45 3424.91 329.45C3413.81 317.15 3397.91 311 3377.21 311C3360.71 311 3347.21 312.8 3336.71 316.4C3326.21 320 3316.76 324.05 3308.36 328.55C3300.26 333.05 3292.31 337.1 3284.51 340.7C3276.71 344.3 3267.41 346.1 3256.61 346.1C3247.01 346.1 3238.91 343.7 3232.31 338.9C3225.71 334.1 3220.31 328.4 3216.11 321.8L3190.91 278.15ZM3797.58 285.35C3811.98 260.15 3828.48 240.35 3847.08 225.95C3865.98 211.55 3887.58 204.35 3911.88 204.35C3932.88 204.35 3949.98 209.3 3963.18 219.2L3954.18 321.8C3952.68 328.4 3950.13 332.9 3946.53 335.3C3943.23 337.7 3938.58 338.9 3932.58 338.9C3930.18 338.9 3927.03 338.75 3923.13 338.45C3919.23 338.15 3915.18 337.85 3910.98 337.55C3906.78 336.95 3902.43 336.5 3897.93 336.2C3893.73 335.6 3889.83 335.3 3886.23 335.3C3865.83 335.3 3849.48 340.7 3837.18 351.5C3825.18 362.3 3814.98 377.3 3806.58 396.5V680H3667.08V213.35H3749.88C3756.78 213.35 3762.48 213.95 3766.98 215.15C3771.78 216.35 3775.68 218.3 3778.68 221C3781.98 223.4 3784.38 226.7 3785.88 230.9C3787.68 235.1 3789.18 240.2 3790.38 246.2L3797.58 285.35ZM4307.28 315.5C4303.68 321.2 4299.78 325.25 4295.58 327.65C4291.68 330.05 4286.58 331.25 4280.28 331.25C4273.68 331.25 4267.08 329.9 4260.48 327.2C4253.88 324.2 4246.68 321.05 4238.88 317.75C4231.38 314.45 4222.83 311.45 4213.23 308.75C4203.63 305.75 4192.68 304.25 4180.38 304.25C4162.68 304.25 4149.03 307.7 4139.43 314.6C4130.13 321.2 4125.48 330.5 4125.48 342.5C4125.48 351.2 4128.48 358.4 4134.48 364.1C4140.78 369.8 4149.03 374.9 4159.23 379.4C4169.43 383.6 4180.98 387.65 4193.88 391.55C4206.78 395.45 4219.98 399.8 4233.48 404.6C4246.98 409.4 4260.18 415.1 4273.08 421.7C4285.98 428 4297.53 435.95 4307.73 445.55C4317.93 454.85 4326.03 466.25 4332.03 479.75C4338.33 493.25 4341.48 509.45 4341.48 528.35C4341.48 551.45 4337.28 572.75 4328.88 592.25C4320.48 611.75 4307.88 628.55 4291.08 642.65C4274.58 656.75 4254.03 667.7 4229.43 675.5C4205.13 683.3 4177.08 687.2 4145.28 687.2C4129.38 687.2 4113.48 685.7 4097.58 682.7C4081.68 679.7 4066.23 675.65 4051.23 670.55C4036.53 665.45 4022.88 659.45 4010.28 652.55C3997.68 645.35 3986.88 637.7 3977.88 629.6L4010.28 578.3C4013.88 572.3 4018.38 567.65 4023.78 564.35C4029.48 560.75 4036.68 558.95 4045.38 558.95C4053.48 558.95 4060.68 560.75 4066.98 564.35C4073.58 567.95 4080.63 571.85 4088.13 576.05C4095.63 580.25 4104.33 584.15 4114.23 587.75C4124.43 591.35 4137.18 593.15 4152.48 593.15C4163.28 593.15 4172.43 592.1 4179.93 590C4187.43 587.6 4193.43 584.45 4197.93 580.55C4202.43 576.65 4205.73 572.3 4207.83 567.5C4209.93 562.7 4210.98 557.75 4210.98 552.65C4210.98 543.35 4207.83 535.7 4201.53 529.7C4195.23 523.7 4186.98 518.6 4176.78 514.4C4166.58 509.9 4154.88 505.85 4141.68 502.25C4128.78 498.35 4115.58 494 4102.08 489.2C4088.58 484.4 4075.23 478.7 4062.03 472.1C4049.13 465.2 4037.58 456.65 4027.38 446.45C4017.18 435.95 4008.93 423.2 4002.63 408.2C3996.33 393.2 3993.18 375.05 3993.18 353.75C3993.18 333.95 3996.93 315.2 4004.43 297.5C4012.23 279.5 4023.78 263.75 4039.08 250.25C4054.38 236.75 4073.58 226.1 4096.68 218.3C4119.78 210.2 4146.78 206.15 4177.68 206.15C4194.48 206.15 4210.68 207.65 4226.28 210.65C4242.18 213.65 4257.03 217.85 4270.83 223.25C4284.63 228.65 4297.23 235.1 4308.63 242.6C4320.03 249.8 4330.08 257.75 4338.78 266.45L4307.28 315.5Z" fill="white"/>
<path d="M1839.08 912C1844.61 912 1849.48 911.267 1853.68 909.8C1857.94 908.333 1861.51 906.3 1864.38 903.7C1867.31 901.033 1869.51 897.867 1870.98 894.2C1872.44 890.533 1873.18 886.5 1873.18 882.1C1873.18 872.967 1870.34 865.833 1864.68 860.7C1859.08 855.567 1850.54 853 1839.08 853H1816.08V912H1839.08ZM1839.08 837.7C1848.14 837.7 1856.01 838.767 1862.68 840.9C1869.41 842.967 1874.98 845.933 1879.38 849.8C1883.78 853.667 1887.04 858.333 1889.18 863.8C1891.38 869.267 1892.48 875.367 1892.48 882.1C1892.48 888.767 1891.31 894.867 1888.98 900.4C1886.64 905.933 1883.21 910.7 1878.68 914.7C1874.21 918.7 1868.64 921.833 1861.98 924.1C1855.38 926.3 1847.74 927.4 1839.08 927.4H1816.08V981H1796.78V837.7H1839.08ZM1956.59 907.1C1962.19 907.1 1967.13 906.433 1971.39 905.1C1975.73 903.7 1979.33 901.767 1982.19 899.3C1985.13 896.767 1987.33 893.767 1988.79 890.3C1990.26 886.833 1990.99 883 1990.99 878.8C1990.99 870.267 1988.19 863.833 1982.59 859.5C1976.99 855.167 1968.59 853 1957.39 853H1936.19V907.1H1956.59ZM2022.79 981H2005.59C2002.06 981 1999.46 979.633 1997.79 976.9L1960.59 925.7C1959.46 924.1 1958.23 922.967 1956.89 922.3C1955.63 921.567 1953.63 921.2 1950.89 921.2H1936.19V981H1916.89V837.7H1957.39C1966.46 837.7 1974.29 838.633 1980.89 840.5C1987.49 842.3 1992.93 844.933 1997.19 848.4C2001.53 851.867 2004.73 856.067 2006.79 861C2008.86 865.867 2009.89 871.333 2009.89 877.4C2009.89 882.467 2009.09 887.2 2007.49 891.6C2005.89 896 2003.56 899.967 2000.49 903.5C1997.49 906.967 1993.79 909.933 1989.39 912.4C1985.06 914.867 1980.13 916.733 1974.59 918C1977.06 919.4 1979.19 921.433 1980.99 924.1L2022.79 981ZM2173.32 909.4C2173.32 920.133 2171.62 930 2168.22 939C2164.82 947.933 2160.02 955.633 2153.82 962.1C2147.62 968.567 2140.15 973.6 2131.42 977.2C2122.75 980.733 2113.15 982.5 2102.62 982.5C2092.08 982.5 2082.48 980.733 2073.82 977.2C2065.15 973.6 2057.72 968.567 2051.52 962.1C2045.32 955.633 2040.52 947.933 2037.12 939C2033.72 930 2032.02 920.133 2032.02 909.4C2032.02 898.667 2033.72 888.833 2037.12 879.9C2040.52 870.9 2045.32 863.167 2051.52 856.7C2057.72 850.167 2065.15 845.1 2073.82 841.5C2082.48 837.9 2092.08 836.1 2102.62 836.1C2113.15 836.1 2122.75 837.9 2131.42 841.5C2140.15 845.1 2147.62 850.167 2153.82 856.7C2160.02 863.167 2164.82 870.9 2168.22 879.9C2171.62 888.833 2173.32 898.667 2173.32 909.4ZM2153.42 909.4C2153.42 900.6 2152.22 892.7 2149.82 885.7C2147.42 878.7 2144.02 872.8 2139.62 868C2135.22 863.133 2129.88 859.4 2123.62 856.8C2117.35 854.2 2110.35 852.9 2102.62 852.9C2094.95 852.9 2087.98 854.2 2081.72 856.8C2075.45 859.4 2070.08 863.133 2065.62 868C2061.22 872.8 2057.82 878.7 2055.42 885.7C2053.02 892.7 2051.82 900.6 2051.82 909.4C2051.82 918.2 2053.02 926.1 2055.42 933.1C2057.82 940.033 2061.22 945.933 2065.62 950.8C2070.08 955.6 2075.45 959.3 2081.72 961.9C2087.98 964.433 2094.95 965.7 2102.62 965.7C2110.35 965.7 2117.35 964.433 2123.62 961.9C2129.88 959.3 2135.22 955.6 2139.62 950.8C2144.02 945.933 2147.42 940.033 2149.82 933.1C2152.22 926.1 2153.42 918.2 2153.42 909.4ZM2220.47 853.5V903.6H2279.37V919.4H2220.47V981H2201.07V837.7H2289.37V853.5H2220.47ZM2402.56 965.2L2402.46 981H2314.16V837.7H2402.46V853.5H2333.56V901.1H2389.36V916.3H2333.56V965.2H2402.56ZM2502.89 860.1C2502.29 861.1 2501.62 861.867 2500.89 862.4C2500.22 862.867 2499.39 863.1 2498.39 863.1C2497.26 863.1 2495.92 862.533 2494.39 861.4C2492.86 860.267 2490.92 859.033 2488.59 857.7C2486.32 856.3 2483.56 855.033 2480.29 853.9C2477.09 852.767 2473.19 852.2 2468.59 852.2C2464.26 852.2 2460.42 852.8 2457.09 854C2453.82 855.133 2451.06 856.7 2448.79 858.7C2446.59 860.7 2444.92 863.067 2443.79 865.8C2442.66 868.467 2442.09 871.367 2442.09 874.5C2442.09 878.5 2443.06 881.833 2444.99 884.5C2446.99 887.1 2449.59 889.333 2452.79 891.2C2456.06 893.067 2459.72 894.7 2463.79 896.1C2467.92 897.433 2472.12 898.833 2476.39 900.3C2480.72 901.767 2484.92 903.433 2488.99 905.3C2493.12 907.1 2496.79 909.4 2499.99 912.2C2503.26 915 2505.86 918.433 2507.79 922.5C2509.79 926.567 2510.79 931.567 2510.79 937.5C2510.79 943.767 2509.72 949.667 2507.59 955.2C2505.46 960.667 2502.32 965.433 2498.19 969.5C2494.12 973.567 2489.09 976.767 2483.09 979.1C2477.16 981.433 2470.39 982.6 2462.79 982.6C2453.46 982.6 2444.99 980.933 2437.39 977.6C2429.79 974.2 2423.29 969.633 2417.89 963.9L2423.49 954.7C2424.02 953.967 2424.66 953.367 2425.39 952.9C2426.19 952.367 2427.06 952.1 2427.99 952.1C2428.86 952.1 2429.82 952.467 2430.89 953.2C2432.02 953.867 2433.29 954.733 2434.69 955.8C2436.09 956.867 2437.69 958.033 2439.49 959.3C2441.29 960.567 2443.32 961.733 2445.59 962.8C2447.92 963.867 2450.56 964.767 2453.49 965.5C2456.42 966.167 2459.72 966.5 2463.39 966.5C2467.99 966.5 2472.09 965.867 2475.69 964.6C2479.29 963.333 2482.32 961.567 2484.79 959.3C2487.32 956.967 2489.26 954.2 2490.59 951C2491.92 947.8 2492.59 944.233 2492.59 940.3C2492.59 935.967 2491.59 932.433 2489.59 929.7C2487.66 926.9 2485.09 924.567 2481.89 922.7C2478.69 920.833 2475.02 919.267 2470.89 918C2466.76 916.667 2462.56 915.333 2458.29 914C2454.02 912.6 2449.82 911 2445.69 909.2C2441.56 907.4 2437.89 905.067 2434.69 902.2C2431.49 899.333 2428.89 895.767 2426.89 891.5C2424.96 887.167 2423.99 881.833 2423.99 875.5C2423.99 870.433 2424.96 865.533 2426.89 860.8C2428.89 856.067 2431.76 851.867 2435.49 848.2C2439.29 844.533 2443.92 841.6 2449.39 839.4C2454.92 837.2 2461.26 836.1 2468.39 836.1C2476.39 836.1 2483.66 837.367 2490.19 839.9C2496.79 842.433 2502.59 846.1 2507.59 850.9L2502.89 860.1ZM2611.48 860.1C2610.88 861.1 2610.22 861.867 2609.48 862.4C2608.82 862.867 2607.98 863.1 2606.98 863.1C2605.85 863.1 2604.52 862.533 2602.98 861.4C2601.45 860.267 2599.52 859.033 2597.18 857.7C2594.92 856.3 2592.15 855.033 2588.88 853.9C2585.68 852.767 2581.78 852.2 2577.18 852.2C2572.85 852.2 2569.02 852.8 2565.68 854C2562.42 855.133 2559.65 856.7 2557.38 858.7C2555.18 860.7 2553.52 863.067 2552.38 865.8C2551.25 868.467 2550.68 871.367 2550.68 874.5C2550.68 878.5 2551.65 881.833 2553.58 884.5C2555.58 887.1 2558.18 889.333 2561.38 891.2C2564.65 893.067 2568.32 894.7 2572.38 896.1C2576.52 897.433 2580.72 898.833 2584.98 900.3C2589.32 901.767 2593.52 903.433 2597.58 905.3C2601.72 907.1 2605.38 909.4 2608.58 912.2C2611.85 915 2614.45 918.433 2616.38 922.5C2618.38 926.567 2619.38 931.567 2619.38 937.5C2619.38 943.767 2618.32 949.667 2616.18 955.2C2614.05 960.667 2610.92 965.433 2606.78 969.5C2602.72 973.567 2597.68 976.767 2591.68 979.1C2585.75 981.433 2578.98 982.6 2571.38 982.6C2562.05 982.6 2553.58 980.933 2545.98 977.6C2538.38 974.2 2531.88 969.633 2526.48 963.9L2532.08 954.7C2532.62 953.967 2533.25 953.367 2533.98 952.9C2534.78 952.367 2535.65 952.1 2536.58 952.1C2537.45 952.1 2538.42 952.467 2539.48 953.2C2540.62 953.867 2541.88 954.733 2543.28 955.8C2544.68 956.867 2546.28 958.033 2548.08 959.3C2549.88 960.567 2551.92 961.733 2554.18 962.8C2556.52 963.867 2559.15 964.767 2562.08 965.5C2565.02 966.167 2568.32 966.5 2571.98 966.5C2576.58 966.5 2580.68 965.867 2584.28 964.6C2587.88 963.333 2590.92 961.567 2593.38 959.3C2595.92 956.967 2597.85 954.2 2599.18 951C2600.52 947.8 2601.18 944.233 2601.18 940.3C2601.18 935.967 2600.18 932.433 2598.18 929.7C2596.25 926.9 2593.68 924.567 2590.48 922.7C2587.28 920.833 2583.62 919.267 2579.48 918C2575.35 916.667 2571.15 915.333 2566.88 914C2562.62 912.6 2558.42 911 2554.28 909.2C2550.15 907.4 2546.48 905.067 2543.28 902.2C2540.08 899.333 2537.48 895.767 2535.48 891.5C2533.55 887.167 2532.58 881.833 2532.58 875.5C2532.58 870.433 2533.55 865.533 2535.48 860.8C2537.48 856.067 2540.35 851.867 2544.08 848.2C2547.88 844.533 2552.52 841.6 2557.98 839.4C2563.52 837.2 2569.85 836.1 2576.98 836.1C2584.98 836.1 2592.25 837.367 2598.78 839.9C2605.38 842.433 2611.18 846.1 2616.18 850.9L2611.48 860.1ZM2666.18 981H2646.78V837.7H2666.18V981ZM2835.23 909.4C2835.23 920.133 2833.53 930 2830.13 939C2826.73 947.933 2821.93 955.633 2815.73 962.1C2809.53 968.567 2802.06 973.6 2793.33 977.2C2784.66 980.733 2775.06 982.5 2764.53 982.5C2754 982.5 2744.4 980.733 2735.73 977.2C2727.06 973.6 2719.63 968.567 2713.43 962.1C2707.23 955.633 2702.43 947.933 2699.03 939C2695.63 930 2693.93 920.133 2693.93 909.4C2693.93 898.667 2695.63 888.833 2699.03 879.9C2702.43 870.9 2707.23 863.167 2713.43 856.7C2719.63 850.167 2727.06 845.1 2735.73 841.5C2744.4 837.9 2754 836.1 2764.53 836.1C2775.06 836.1 2784.66 837.9 2793.33 841.5C2802.06 845.1 2809.53 850.167 2815.73 856.7C2821.93 863.167 2826.73 870.9 2830.13 879.9C2833.53 888.833 2835.23 898.667 2835.23 909.4ZM2815.33 909.4C2815.33 900.6 2814.13 892.7 2811.73 885.7C2809.33 878.7 2805.93 872.8 2801.53 868C2797.13 863.133 2791.8 859.4 2785.53 856.8C2779.26 854.2 2772.26 852.9 2764.53 852.9C2756.86 852.9 2749.9 854.2 2743.63 856.8C2737.36 859.4 2732 863.133 2727.53 868C2723.13 872.8 2719.73 878.7 2717.33 885.7C2714.93 892.7 2713.73 900.6 2713.73 909.4C2713.73 918.2 2714.93 926.1 2717.33 933.1C2719.73 940.033 2723.13 945.933 2727.53 950.8C2732 955.6 2737.36 959.3 2743.63 961.9C2749.9 964.433 2756.86 965.7 2764.53 965.7C2772.26 965.7 2779.26 964.433 2785.53 961.9C2791.8 959.3 2797.13 955.6 2801.53 950.8C2805.93 945.933 2809.33 940.033 2811.73 933.1C2814.13 926.1 2815.33 918.2 2815.33 909.4ZM2979.09 837.7V981H2969.39C2967.85 981 2966.55 980.733 2965.49 980.2C2964.49 979.667 2963.49 978.767 2962.49 977.5L2879.59 869.5C2879.72 871.167 2879.82 872.8 2879.89 874.4C2879.95 876 2879.99 877.5 2879.99 878.9V981H2862.99V837.7H2872.99C2873.85 837.7 2874.59 837.767 2875.19 837.9C2875.79 837.967 2876.32 838.133 2876.79 838.4C2877.25 838.6 2877.72 838.933 2878.19 839.4C2878.65 839.8 2879.15 840.333 2879.69 841L2962.59 948.9C2962.45 947.167 2962.32 945.5 2962.19 943.9C2962.12 942.233 2962.09 940.667 2962.09 939.2V837.7H2979.09ZM3091.82 927.8L3069.32 869.5C3068.66 867.767 3067.96 865.767 3067.22 863.5C3066.49 861.167 3065.79 858.7 3065.12 856.1C3063.72 861.5 3062.29 866 3060.82 869.6L3038.32 927.8H3091.82ZM3132.22 981H3117.22C3115.49 981 3114.09 980.567 3113.02 979.7C3111.96 978.833 3111.16 977.733 3110.62 976.4L3097.22 941.8H3032.92L3019.52 976.4C3019.12 977.6 3018.36 978.667 3017.22 979.6C3016.09 980.533 3014.69 981 3013.02 981H2998.02L3055.32 837.7H3074.92L3132.22 981ZM3232.37 964.7V981H3151.07V837.7H3170.37V964.7H3232.37ZM3415.03 837.7V981H3405.33C3403.79 981 3402.49 980.733 3401.43 980.2C3400.43 979.667 3399.43 978.767 3398.43 977.5L3315.53 869.5C3315.66 871.167 3315.76 872.8 3315.83 874.4C3315.89 876 3315.93 877.5 3315.93 878.9V981H3298.93V837.7H3308.93C3309.79 837.7 3310.53 837.767 3311.13 837.9C3311.73 837.967 3312.26 838.133 3312.73 838.4C3313.19 838.6 3313.66 838.933 3314.13 839.4C3314.59 839.8 3315.09 840.333 3315.63 841L3398.53 948.9C3398.39 947.167 3398.26 945.5 3398.13 943.9C3398.06 942.233 3398.03 940.667 3398.03 939.2V837.7H3415.03ZM3540.06 965.2L3539.96 981H3451.66V837.7H3539.96V853.5H3471.06V901.1H3526.86V916.3H3471.06V965.2H3540.06ZM3663.99 854H3617.59V981H3598.29V854H3551.79V837.7H3663.99V854ZM3870.95 837.7L3826.25 981H3808.85L3772.55 871.7C3772.22 870.633 3771.89 869.5 3771.55 868.3C3771.29 867.1 3770.99 865.833 3770.65 864.5C3770.32 865.833 3769.99 867.1 3769.65 868.3C3769.32 869.5 3768.99 870.633 3768.65 871.7L3732.15 981H3714.75L3670.05 837.7H3686.15C3687.89 837.7 3689.32 838.133 3690.45 839C3691.65 839.867 3692.42 840.967 3692.75 842.3L3722.35 941.9C3722.82 943.7 3723.25 945.633 3723.65 947.7C3724.12 949.767 3724.55 951.967 3724.95 954.3C3725.42 951.967 3725.89 949.767 3726.35 947.7C3726.89 945.567 3727.45 943.633 3728.05 941.9L3761.75 842.3C3762.15 841.167 3762.92 840.133 3764.05 839.2C3765.25 838.2 3766.69 837.7 3768.35 837.7H3773.95C3775.69 837.7 3777.09 838.133 3778.15 839C3779.22 839.867 3780.02 840.967 3780.55 842.3L3814.15 941.9C3814.75 943.633 3815.29 945.5 3815.75 947.5C3816.29 949.5 3816.79 951.6 3817.25 953.8C3817.59 951.6 3817.95 949.5 3818.35 947.5C3818.75 945.5 3819.19 943.633 3819.65 941.9L3849.35 842.3C3849.69 841.1 3850.42 840.033 3851.55 839.1C3852.75 838.167 3854.19 837.7 3855.85 837.7H3870.95ZM4022.73 909.4C4022.73 920.133 4021.03 930 4017.63 939C4014.23 947.933 4009.43 955.633 4003.23 962.1C3997.03 968.567 3989.56 973.6 3980.83 977.2C3972.16 980.733 3962.56 982.5 3952.03 982.5C3941.5 982.5 3931.9 980.733 3923.23 977.2C3914.56 973.6 3907.13 968.567 3900.93 962.1C3894.73 955.633 3889.93 947.933 3886.53 939C3883.13 930 3881.43 920.133 3881.43 909.4C3881.43 898.667 3883.13 888.833 3886.53 879.9C3889.93 870.9 3894.73 863.167 3900.93 856.7C3907.13 850.167 3914.56 845.1 3923.23 841.5C3931.9 837.9 3941.5 836.1 3952.03 836.1C3962.56 836.1 3972.16 837.9 3980.83 841.5C3989.56 845.1 3997.03 850.167 4003.23 856.7C4009.43 863.167 4014.23 870.9 4017.63 879.9C4021.03 888.833 4022.73 898.667 4022.73 909.4ZM4002.83 909.4C4002.83 900.6 4001.63 892.7 3999.23 885.7C3996.83 878.7 3993.43 872.8 3989.03 868C3984.63 863.133 3979.3 859.4 3973.03 856.8C3966.76 854.2 3959.76 852.9 3952.03 852.9C3944.36 852.9 3937.4 854.2 3931.13 856.8C3924.86 859.4 3919.5 863.133 3915.03 868C3910.63 872.8 3907.23 878.7 3904.83 885.7C3902.43 892.7 3901.23 900.6 3901.23 909.4C3901.23 918.2 3902.43 926.1 3904.83 933.1C3907.23 940.033 3910.63 945.933 3915.03 950.8C3919.5 955.6 3924.86 959.3 3931.13 961.9C3937.4 964.433 3944.36 965.7 3952.03 965.7C3959.76 965.7 3966.76 964.433 3973.03 961.9C3979.3 959.3 3984.63 955.6 3989.03 950.8C3993.43 945.933 3996.83 940.033 3999.23 933.1C4001.63 926.1 4002.83 918.2 4002.83 909.4ZM4090.19 907.1C4095.79 907.1 4100.72 906.433 4104.99 905.1C4109.32 903.7 4112.92 901.767 4115.79 899.3C4118.72 896.767 4120.92 893.767 4122.39 890.3C4123.85 886.833 4124.59 883 4124.59 878.8C4124.59 870.267 4121.79 863.833 4116.19 859.5C4110.59 855.167 4102.19 853 4090.99 853H4069.79V907.1H4090.19ZM4156.39 981H4139.19C4135.65 981 4133.05 979.633 4131.39 976.9L4094.19 925.7C4093.05 924.1 4091.82 922.967 4090.49 922.3C4089.22 921.567 4087.22 921.2 4084.49 921.2H4069.79V981H4050.49V837.7H4090.99C4100.05 837.7 4107.89 838.633 4114.49 840.5C4121.09 842.3 4126.52 844.933 4130.79 848.4C4135.12 851.867 4138.32 856.067 4140.39 861C4142.45 865.867 4143.49 871.333 4143.49 877.4C4143.49 882.467 4142.69 887.2 4141.09 891.6C4139.49 896 4137.15 899.967 4134.09 903.5C4131.09 906.967 4127.39 909.933 4122.99 912.4C4118.65 914.867 4113.72 916.733 4108.19 918C4110.65 919.4 4112.79 921.433 4114.59 924.1L4156.39 981ZM4195.18 900.5H4202.48C4205.01 900.5 4207.04 900.2 4208.58 899.6C4210.11 898.933 4211.51 897.833 4212.78 896.3L4260.48 842.3C4261.81 840.567 4263.21 839.367 4264.68 838.7C4266.14 838.033 4267.94 837.7 4270.08 837.7H4286.48L4231.88 899.4C4230.54 901 4229.24 902.333 4227.98 903.4C4226.78 904.4 4225.48 905.233 4224.08 905.9C4225.88 906.5 4227.51 907.4 4228.98 908.6C4230.44 909.733 4231.88 911.233 4233.28 913.1L4290.28 981H4273.48C4272.21 981 4271.11 980.933 4270.18 980.8C4269.31 980.6 4268.54 980.333 4267.88 980C4267.21 979.6 4266.61 979.167 4266.08 978.7C4265.61 978.167 4265.14 977.567 4264.68 976.9L4215.28 920C4213.94 918.333 4212.51 917.167 4210.98 916.5C4209.44 915.767 4207.11 915.4 4203.98 915.4H4195.18V981H4175.88V837.7H4195.18V900.5Z" fill="white"/>
</svg>
